<svg class="chroma-logo" viewBox="0 0 392 37" fill="none" xmlns="http://www.w3.org/2000/svg">
                    <path
                            d="M243.722 36.1955C250.915 36.1955 255.989 31.074 258.206 25.0167L256.728 23.1947C254.61 28.3654 250.619 32.0096 245.151 32.0096C238.549 32.0096 234.805 26.8881 234.805 19.7475C234.805 10.5386 241.012 2.65926 248.895 2.65926C253.181 2.65926 256.039 5.02305 256.039 8.61797C256.039 9.60289 255.842 10.6863 255.398 11.8189H257.369L261.852 4.48134C258.404 1.57586 253.674 0 249.388 0C238.697 0 230.469 9.65213 230.469 20.9786C230.469 30.3353 236.036 36.1955 243.722 36.1955Z"
                            fill="url(#paint0_diamond_1505_33)"/>
                    <path
                            d="M278.096 35.8508C280.412 35.8508 283.121 33.881 285.979 29.4981L285.043 28.267C283.072 31.0247 281.397 32.8468 280.215 32.8468C279.623 32.8468 279.426 32.4528 279.426 31.8126C279.426 31.3694 279.525 30.877 279.673 30.3845L283.811 16.7435C284.008 16.0541 284.156 15.4139 284.156 14.6752C284.156 12.7546 283.072 11.4742 281.151 11.4742C277.998 11.4742 272.874 14.9707 268.046 22.8992L273.268 0.295473L265.04 1.77284L264.794 2.90549L268.243 4.62908L261.247 35.3091H265.04L265.829 32.5513C268.785 22.259 275.485 15.7093 278.293 15.7093C279.18 15.7093 279.476 16.3003 279.476 17.039C279.476 17.7777 279.229 18.6148 279.032 19.255L275.731 30.2368C275.436 31.1724 275.288 32.1574 275.288 32.8468C275.288 34.6689 276.224 35.8508 278.096 35.8508Z"
                            fill="url(#paint1_diamond_1505_33)"/>
                    <path
                            d="M293.439 17.039L289.252 35.3091H293.045L293.883 32.4036C296.691 22.7022 300.484 17.0882 303.785 17.0882C304.179 17.0882 304.968 17.1867 305.608 17.7777L308.318 12.7546C307.579 12.0159 306.594 11.7204 305.805 11.7204C302.849 11.7204 299.696 15.5616 296.149 22.5545L297.233 17.9746C297.528 16.7435 297.775 15.4631 297.775 14.3797C297.775 12.7054 297.184 11.4742 295.262 11.4742C292.897 11.4742 290.089 13.444 287.182 17.8761L288.118 19.058C290.089 16.3003 291.715 14.4782 292.848 14.4782C293.39 14.4782 293.636 14.9707 293.636 15.6601C293.636 16.1033 293.538 16.5958 293.439 17.039Z"
                            fill="url(#paint2_diamond_1505_33)"/>
                    <path
                            d="M313.887 35.8508C322.262 35.8508 327.288 26.9866 327.288 20.0429C327.288 15.3154 325.071 11.4742 319.553 11.4742C311.177 11.4742 306.103 20.3877 306.103 27.282C306.103 31.9604 308.32 35.8508 313.887 35.8508ZM310.438 27.0358C310.438 21.5696 313.493 13.9857 318.617 13.9857C321.72 13.9857 322.952 16.7927 322.952 20.2892C322.952 25.7062 319.947 33.3393 314.774 33.3393C311.67 33.3393 310.438 30.5323 310.438 27.0358Z"
                            fill="url(#paint3_diamond_1505_33)"/>
                    <path
                            d="M358.936 35.8508C361.252 35.8508 363.962 33.881 366.868 29.4981L365.883 28.267C363.962 31.0247 362.237 32.8468 361.104 32.8468C360.513 32.8468 360.316 32.4036 360.316 31.7634C360.316 31.3202 360.414 30.7785 360.562 30.286L364.701 16.8912C364.947 16.0541 365.095 15.3646 365.095 14.5767C365.095 12.7546 364.208 11.4742 362.287 11.4742C359.183 11.4742 354.946 14.7737 350.512 22.2098L351.891 16.5465C352.088 15.7586 352.187 14.9707 352.187 14.3797C352.187 12.5576 351.3 11.4742 349.527 11.4742C346.176 11.4742 341.742 15.2661 337.407 22.7515L338.54 17.9746C338.836 16.7435 339.082 15.4631 339.082 14.3797C339.082 12.7054 338.491 11.4742 336.569 11.4742C334.205 11.4742 331.396 13.444 328.49 17.8761L329.426 19.058C331.396 16.3003 333.022 14.4782 334.155 14.4782C334.697 14.4782 334.944 14.9707 334.944 15.6601C334.944 16.1033 334.845 16.5958 334.746 17.039L330.559 35.3091H334.352L335.141 32.5513C337.752 23.3916 343.664 15.7093 346.472 15.7093C347.162 15.7093 347.507 16.1525 347.507 17.0882C347.507 17.8269 347.31 18.6148 347.162 19.255L343.27 35.3091H347.162L347.753 32.896C350.118 23.2932 356.276 15.7093 359.281 15.7093C360.07 15.7093 360.414 16.2018 360.414 16.9897C360.414 17.5807 360.217 18.3194 360.02 18.9595L356.572 30.1383C356.276 31.074 356.128 31.9604 356.128 32.6991C356.128 34.7181 357.163 35.8508 358.936 35.8508Z"
                            fill="url(#paint4_diamond_1505_33)"/>
                    <path
                            d="M372.042 35.8508C375.983 35.8508 379.629 31.4679 383.127 24.2288L381.55 30.2368C381.304 31.1724 381.156 32.0096 381.156 32.7483C381.156 34.7674 382.142 35.8508 383.866 35.8508C386.231 35.8508 388.596 33.881 391.502 29.4981L390.566 28.267C388.596 31.0247 386.871 32.8468 385.689 32.8468C385.147 32.8468 384.95 32.4036 384.95 31.8126C384.95 31.3202 385.048 30.8277 385.147 30.3845L389.433 11.9667H387.019L385.689 13.9857C384.95 12.6561 383.423 11.4742 380.91 11.4742C373.274 11.4742 367.509 22.1605 367.509 29.4981C367.509 33.3885 369.135 35.8508 372.042 35.8508ZM371.5 28.6117C371.5 22.9977 375.688 13.838 381.255 13.838C382.634 13.838 383.964 14.3305 384.654 15.8078C382.388 23.4409 377.313 32.4036 373.766 32.4036C372.19 32.4036 371.5 30.8277 371.5 28.6117Z"
                            fill="url(#paint5_diamond_1505_33)"/>
                    <path
                            d="M150.742 23.9976C149.621 24.3384 148.475 24.5873 147.314 24.7419L145.532 25.0357C143.749 25.2903 142.457 25.8779 142.457 27.5231C142.457 29.1684 143.456 29.658 145.375 29.658C146.04 29.7197 146.71 29.6454 147.345 29.4396C147.98 29.2338 148.566 28.9009 149.069 28.461C149.571 28.0212 149.978 27.4837 150.266 26.8813C150.553 26.279 150.715 25.6243 150.742 24.9573V23.9976ZM158.576 18.1217V35.4164H151.408V32.0867C150.436 33.359 149.172 34.379 147.723 35.0607C146.275 35.7425 144.683 36.066 143.083 36.004C140.952 36.0853 138.864 35.3892 137.207 34.0454C136.411 33.3203 135.786 32.4278 135.376 31.4321C134.967 30.4364 134.783 29.3623 134.838 28.287C134.734 27.2141 134.913 26.1329 135.357 25.1504C135.8 24.1679 136.492 23.3182 137.364 22.6853C139.235 21.5439 141.323 20.8036 143.495 20.5112L147.862 19.8649C149.782 19.5907 150.742 18.8464 150.742 17.632C150.742 16.2414 149.508 15.6734 147.529 15.6734C146.724 15.5461 145.898 15.6649 145.161 16.0144C144.423 16.3638 143.809 16.9276 143.397 17.632H135.758C136.914 11.854 141.634 9.07277 148.215 9.07277C155.011 9.07277 158.733 12.2066 158.733 18.2M195.79 19.9432C195.775 19.3965 195.646 18.8589 195.411 18.3651C195.176 17.8713 194.84 17.4322 194.425 17.0761C194.01 16.72 193.525 16.4548 193.001 16.2976C192.477 16.1403 191.926 16.0945 191.383 16.163C190.209 16.0146 189.022 16.3246 188.07 17.0287C187.118 17.7327 186.474 18.7765 186.271 19.9432H195.79ZM203.625 24.9377H186.291C186.643 27.6211 188.426 28.855 191.638 28.855C192.412 28.9799 193.206 28.8949 193.936 28.609C194.666 28.3231 195.307 27.8467 195.79 27.2293H203.625C202.391 32.929 197.475 36.0432 191.481 36.0432C184.391 36.0432 178.554 31.5383 178.554 22.7049C178.554 13.8714 184.43 8.99443 191.677 8.99443C198.474 8.99443 203.781 13.4209 203.781 21.6864V24.8594L203.625 24.9377ZM177.301 28.62H174.617C174.297 28.6598 173.971 28.6248 173.666 28.5179C173.361 28.4109 173.085 28.2349 172.859 28.0035C172.633 27.7721 172.464 27.4917 172.365 27.1841C172.266 26.8765 172.239 26.5501 172.287 26.2304V16.4372H177.34V9.52326H172.287V2.10003L164.452 4.27412V9.52326H160.006V16.4568H164.452V27.2097C164.452 34.065 167.762 35.5535 172.835 35.5535H177.34L177.301 28.62ZM135.073 17.632H132.605C128.903 17.632 126.729 19.1402 126.729 23.5079V35.4752H118.894V9.52326H126.729V12.8529C127.532 10.5222 129.765 9.52326 132.605 9.52326H135.073V17.632ZM98.5832 19.9432C98.7808 18.7666 99.4296 17.7134 100.391 17.0075C101.353 16.3016 102.553 15.9987 103.734 16.163C104.278 16.0915 104.832 16.1351 105.358 16.291C105.884 16.4469 106.372 16.7116 106.789 17.068C107.206 17.4244 107.544 17.8645 107.78 18.3598C108.017 18.8551 108.146 19.3946 108.161 19.9432H98.5832ZM115.976 21.7647C115.976 13.4993 110.668 9.09236 103.871 9.09236C96.6833 9.09236 90.7486 13.7931 90.7486 22.8028C90.7486 31.8125 96.6245 36.1215 103.676 36.1215C109.689 36.1215 114.585 33.0073 115.819 27.3077H107.985C107.524 27.9321 106.906 28.4226 106.194 28.729C105.481 29.0354 104.7 29.1465 103.93 29.0509C100.698 29.0509 98.9161 27.6994 98.5636 25.1336H115.917V21.7647H115.976ZM88.2024 35.4752H80.2307V19.9432C80.2729 19.4009 80.1937 18.8561 79.999 18.3482C79.8043 17.8404 79.4989 17.3822 79.1051 17.0071C78.7112 16.632 78.2387 16.3493 77.722 16.1796C77.2052 16.0099 76.6572 15.9574 76.1176 16.0259C75.4664 15.9806 74.8133 16.0799 74.2049 16.3167C73.5966 16.5534 73.0482 16.9218 72.599 17.3954C72.1497 17.8689 71.8108 18.436 71.6064 19.056C71.402 19.6759 71.3373 20.3334 71.4169 20.9813V35.4556H63.5823V9.52326H71.4169V12.6571C72.285 11.4158 73.469 10.429 74.8464 9.79884C76.2238 9.16867 77.7446 8.918 79.2514 9.07277C85.1273 9.07277 88.222 12.755 88.222 19.101V35.4948L88.2024 35.4752ZM43.4084 19.9432C43.6151 18.7787 44.2604 17.7378 45.2113 17.0347C46.1622 16.3315 47.3465 16.0195 48.5204 16.163C49.063 16.0945 49.614 16.1403 50.1379 16.2976C50.6617 16.4548 51.1468 16.72 51.5619 17.0761C51.9771 17.4322 52.313 17.8713 52.5482 18.3651C52.7834 18.8589 52.9125 19.3965 52.9274 19.9432H43.4084ZM60.8207 21.7647C60.8207 13.4993 55.5128 9.09236 48.7163 9.09236C41.5281 9.09236 35.5934 13.7931 35.5934 22.8028C35.5934 31.8125 41.4693 36.1215 48.5204 36.1215C54.5138 36.1215 59.43 33.0073 60.664 27.3077H52.8098C52.3452 27.9321 51.7235 28.4224 51.0079 28.7286C50.2923 29.0347 49.5084 29.146 48.7359 29.0509C45.5237 29.0509 43.7414 27.6994 43.3888 25.1336H60.7423V21.7647H60.8207ZM32.538 16.5156V35.4948H25.3889V32.2239C24.272 33.618 22.8373 34.7243 21.2051 35.4501C19.5728 36.1759 17.7904 36.5002 16.0071 36.3957C6.21389 36.3957 0.00501689 28.5612 0.00501689 18.5917C-0.210433 9.22946 6.52727 -0.230745 17.5544 0.00429099C25.7807 0.00429099 32.0287 4.92047 32.6163 13.3034H24.2138C24.0571 9.93457 21.0799 7.54504 17.0647 7.54504C15.7895 7.49474 14.5209 7.75133 13.3655 8.29326C12.21 8.83518 11.2016 9.64659 10.425 10.6593C8.75611 13.0165 7.92204 15.8634 8.05501 18.7484C8.05501 25.4666 11.6785 28.9529 16.8297 28.9529C21.2366 28.9529 24.0571 26.9943 24.6642 23.6646H15.5958V16.5156H32.538ZM221.605 18.1804H212.948V9.52326H221.605V18.1804ZM221.605 26.8376H212.948V35.4948H221.605V26.8376Z"
                            fill="white"/>
                    <defs>
                        <radialGradient id="paint0_diamond_1505_33" cx="0" cy="0" r="1"
                                        gradientUnits="userSpaceOnUse"
                                        gradientTransform="translate(239.703 28.8087) rotate(-8.37) scale(149.701 125.876)">
                            <stop stop-color="#C92BEE"/>
                            <stop offset="0.182292" stop-color="#E2337F"/>
                            <stop offset="0.354167" stop-color="#E23422"/>
                            <stop offset="0.572917" stop-color="#F6D74B"/>
                            <stop offset="0.802083" stop-color="#73F5D3"/>
                            <stop offset="1" stop-color="#00CEF3"/>
                        </radialGradient>
                        <radialGradient id="paint1_diamond_1505_33" cx="0" cy="0" r="1"
                                        gradientUnits="userSpaceOnUse"
                                        gradientTransform="translate(239.703 28.8087) rotate(-8.37) scale(149.701 125.876)">
                            <stop stop-color="#C92BEE"/>
                            <stop offset="0.182292" stop-color="#E2337F"/>
                            <stop offset="0.354167" stop-color="#E23422"/>
                            <stop offset="0.572917" stop-color="#F6D74B"/>
                            <stop offset="0.802083" stop-color="#73F5D3"/>
                            <stop offset="1" stop-color="#00CEF3"/>
                        </radialGradient>
                        <radialGradient id="paint2_diamond_1505_33" cx="0" cy="0" r="1"
                                        gradientUnits="userSpaceOnUse"
                                        gradientTransform="translate(239.703 28.8087) rotate(-8.37) scale(149.701 125.876)">
                            <stop stop-color="#C92BEE"/>
                            <stop offset="0.182292" stop-color="#E2337F"/>
                            <stop offset="0.354167" stop-color="#E23422"/>
                            <stop offset="0.572917" stop-color="#F6D74B"/>
                            <stop offset="0.802083" stop-color="#73F5D3"/>
                            <stop offset="1" stop-color="#00CEF3"/>
                        </radialGradient>
                        <radialGradient id="paint3_diamond_1505_33" cx="0" cy="0" r="1"
                                        gradientUnits="userSpaceOnUse"
                                        gradientTransform="translate(239.703 28.8087) rotate(-8.37) scale(149.701 125.876)">
                            <stop stop-color="#C92BEE"/>
                            <stop offset="0.182292" stop-color="#E2337F"/>
                            <stop offset="0.354167" stop-color="#E23422"/>
                            <stop offset="0.572917" stop-color="#F6D74B"/>
                            <stop offset="0.802083" stop-color="#73F5D3"/>
                            <stop offset="1" stop-color="#00CEF3"/>
                        </radialGradient>
                        <radialGradient id="paint4_diamond_1505_33" cx="0" cy="0" r="1"
                                        gradientUnits="userSpaceOnUse"
                                        gradientTransform="translate(239.703 28.8087) rotate(-8.37) scale(149.701 125.876)">
                            <stop stop-color="#C92BEE"/>
                            <stop offset="0.182292" stop-color="#E2337F"/>
                            <stop offset="0.354167" stop-color="#E23422"/>
                            <stop offset="0.572917" stop-color="#F6D74B"/>
                            <stop offset="0.802083" stop-color="#73F5D3"/>
                            <stop offset="1" stop-color="#00CEF3"/>
                        </radialGradient>
                        <radialGradient id="paint5_diamond_1505_33" cx="0" cy="0" r="1"
                                        gradientUnits="userSpaceOnUse"
                                        gradientTransform="translate(239.703 28.8087) rotate(-8.37) scale(149.701 125.876)">
                            <stop stop-color="#C92BEE"/>
                            <stop offset="0.182292" stop-color="#E2337F"/>
                            <stop offset="0.354167" stop-color="#E23422"/>
                            <stop offset="0.572917" stop-color="#F6D74B"/>
                            <stop offset="0.802083" stop-color="#73F5D3"/>
                            <stop offset="1" stop-color="#00CEF3"/>
                        </radialGradient>
                    </defs>
                </svg>