<?xml version="1.0" encoding="utf-8"?>
<!-- Generator: Adobe Illustrator 27.0.1, SVG Export Plug-In . SVG Version: 6.00 Build 0)  -->
<svg version="1.1" id="Layer_1" xmlns="http://www.w3.org/2000/svg" xmlns:xlink="http://www.w3.org/1999/xlink" x="0px" y="0px"
	 viewBox="0 0 392 37" style="enable-background:new 0 0 392 37;" xml:space="preserve">
<style type="text/css">
	.st0{fill:url(#SVGID_1_);}
	.st1{fill:url(#SVGID_00000107584985615332498040000015926836687427959975_);}
	.st2{fill:url(#SVGID_00000182514721528616506480000002781884777341197712_);}
	.st3{fill:url(#SVGID_00000040567082530724480210000012521987392714532259_);}
	.st4{fill:url(#SVGID_00000168107345176853707960000013395503888669437865_);}
	.st5{fill:url(#SVGID_00000072988817883941863980000011660282021691750315_);}
	.st6{fill:#FFFFFF;stroke:#000000;stroke-miterlimit:10;}
</style>
<radialGradient id="SVGID_1_" cx="-758.4641" cy="554.0228" r="1" gradientTransform="matrix(148.1065 -21.7912 -18.3231 -124.5353 122724.5938 52496.3086)" gradientUnits="userSpaceOnUse">
	<stop  offset="0" style="stop-color:#C92BEE"/>
	<stop  offset="0.1823" style="stop-color:#E2337F"/>
	<stop  offset="0.3542" style="stop-color:#E23422"/>
	<stop  offset="0.5729" style="stop-color:#F6D74B"/>
	<stop  offset="0.8021" style="stop-color:#73F5D3"/>
	<stop  offset="1" style="stop-color:#00CEF3"/>
</radialGradient>
<path class="st0" d="M243.7,36.2c7.2,0,12.3-5.1,14.5-11.2l-1.5-1.8c-2.1,5.2-6.1,8.8-11.6,8.8c-6.6,0-10.3-5.1-10.3-12.3
	c0-9.2,6.2-17.1,14.1-17.1c4.3,0,7.1,2.4,7.1,6c0,1-0.2,2.1-0.6,3.2h2l4.5-7.3c-3.4-2.9-8.2-4.5-12.5-4.5c-10.7,0-18.9,9.7-18.9,21
	C230.5,30.3,236,36.2,243.7,36.2z"/>
<radialGradient id="SVGID_00000073002362718970590890000008976407599263852983_" cx="-758.4641" cy="554.0228" r="1" gradientTransform="matrix(148.1065 -21.7912 -18.3231 -124.5353 122724.5938 52496.3086)" gradientUnits="userSpaceOnUse">
	<stop  offset="0" style="stop-color:#C92BEE"/>
	<stop  offset="0.1823" style="stop-color:#E2337F"/>
	<stop  offset="0.3542" style="stop-color:#E23422"/>
	<stop  offset="0.5729" style="stop-color:#F6D74B"/>
	<stop  offset="0.8021" style="stop-color:#73F5D3"/>
	<stop  offset="1" style="stop-color:#00CEF3"/>
</radialGradient>
<path style="fill:url(#SVGID_00000073002362718970590890000008976407599263852983_);" d="M278.1,35.9c2.3,0,5-2,7.9-6.4l-0.9-1.2
	c-2,2.8-3.6,4.6-4.8,4.6c-0.6,0-0.8-0.4-0.8-1c0-0.4,0.1-0.9,0.2-1.4l4.1-13.6c0.2-0.7,0.3-1.3,0.3-2.1c0-1.9-1.1-3.2-3-3.2
	c-3.2,0-8.3,3.5-13.1,11.4l5.2-22.6L265,1.8l-0.2,1.1l3.4,1.7l-7,30.7h3.8l0.8-2.8c3-10.3,9.7-16.8,12.5-16.8c0.9,0,1.2,0.6,1.2,1.3
	c0,0.7-0.2,1.6-0.4,2.2l-3.3,11c-0.3,0.9-0.4,1.9-0.4,2.6C275.3,34.7,276.2,35.9,278.1,35.9z"/>
<radialGradient id="SVGID_00000073681060589838801970000014424678355795126686_" cx="-758.4641" cy="554.0228" r="1" gradientTransform="matrix(148.1065 -21.7912 -18.3231 -124.5353 122724.5938 52496.3086)" gradientUnits="userSpaceOnUse">
	<stop  offset="0" style="stop-color:#C92BEE"/>
	<stop  offset="0.1823" style="stop-color:#E2337F"/>
	<stop  offset="0.3542" style="stop-color:#E23422"/>
	<stop  offset="0.5729" style="stop-color:#F6D74B"/>
	<stop  offset="0.8021" style="stop-color:#73F5D3"/>
	<stop  offset="1" style="stop-color:#00CEF3"/>
</radialGradient>
<path style="fill:url(#SVGID_00000073681060589838801970000014424678355795126686_);" d="M293.4,17l-4.2,18.3h3.8l0.8-2.9
	c2.8-9.7,6.6-15.3,9.9-15.3c0.4,0,1.2,0.1,1.8,0.7l2.7-5c-0.7-0.7-1.7-1-2.5-1c-3,0-6.1,3.8-9.7,10.8l1.1-4.6
	c0.3-1.2,0.5-2.5,0.5-3.6c0-1.7-0.6-2.9-2.5-2.9c-2.4,0-5.2,2-8.1,6.4l0.9,1.2c2-2.8,3.6-4.6,4.7-4.6c0.5,0,0.8,0.5,0.8,1.2
	C293.6,16.1,293.5,16.6,293.4,17z"/>
<radialGradient id="SVGID_00000015334150559233157990000005908925003059748540_" cx="-758.4641" cy="554.0228" r="1" gradientTransform="matrix(148.1065 -21.7912 -18.3231 -124.5353 122724.5938 52496.3086)" gradientUnits="userSpaceOnUse">
	<stop  offset="0" style="stop-color:#C92BEE"/>
	<stop  offset="0.1823" style="stop-color:#E2337F"/>
	<stop  offset="0.3542" style="stop-color:#E23422"/>
	<stop  offset="0.5729" style="stop-color:#F6D74B"/>
	<stop  offset="0.8021" style="stop-color:#73F5D3"/>
	<stop  offset="1" style="stop-color:#00CEF3"/>
</radialGradient>
<path style="fill:url(#SVGID_00000015334150559233157990000005908925003059748540_);" d="M313.9,35.9c8.4,0,13.4-8.9,13.4-15.8
	c0-4.7-2.2-8.6-7.7-8.6c-8.4,0-13.5,8.9-13.5,15.8C306.1,32,308.3,35.9,313.9,35.9z M310.4,27c0-5.5,3.1-13.1,8.2-13.1
	c3.1,0,4.3,2.8,4.3,6.3c0,5.4-3,13.1-8.2,13.1C311.7,33.3,310.4,30.5,310.4,27z"/>
<radialGradient id="SVGID_00000009592324988887036200000005564126725964039604_" cx="-758.4641" cy="554.0228" r="1" gradientTransform="matrix(148.1065 -21.7912 -18.3231 -124.5353 122724.5938 52496.3086)" gradientUnits="userSpaceOnUse">
	<stop  offset="0" style="stop-color:#C92BEE"/>
	<stop  offset="0.1823" style="stop-color:#E2337F"/>
	<stop  offset="0.3542" style="stop-color:#E23422"/>
	<stop  offset="0.5729" style="stop-color:#F6D74B"/>
	<stop  offset="0.8021" style="stop-color:#73F5D3"/>
	<stop  offset="1" style="stop-color:#00CEF3"/>
</radialGradient>
<path style="fill:url(#SVGID_00000009592324988887036200000005564126725964039604_);" d="M358.9,35.9c2.3,0,5-2,7.9-6.4l-1-1.2
	c-1.9,2.8-3.6,4.6-4.8,4.6c-0.6,0-0.8-0.4-0.8-1.1c0-0.4,0.1-1,0.2-1.5l4.1-13.4c0.2-0.8,0.4-1.5,0.4-2.3c0-1.8-0.9-3.1-2.8-3.1
	c-3.1,0-7.3,3.3-11.8,10.7l1.4-5.7c0.2-0.8,0.3-1.6,0.3-2.2c0-1.8-0.9-2.9-2.7-2.9c-3.4,0-7.8,3.8-12.1,11.3l1.1-4.8
	c0.3-1.2,0.5-2.5,0.5-3.6c0-1.7-0.6-2.9-2.5-2.9c-2.4,0-5.2,2-8.1,6.4l0.9,1.2c2-2.8,3.6-4.6,4.7-4.6c0.5,0,0.8,0.5,0.8,1.2
	c0,0.4-0.1,0.9-0.2,1.4l-4.2,18.3h3.8l0.8-2.8c2.6-9.2,8.5-16.8,11.3-16.8c0.7,0,1,0.4,1,1.4c0,0.7-0.2,1.5-0.3,2.2l-3.9,16.1h3.9
	l0.6-2.4c2.4-9.6,8.5-17.2,11.5-17.2c0.8,0,1.1,0.5,1.1,1.3c0,0.6-0.2,1.3-0.4,2l-3.4,11.2c-0.3,0.9-0.4,1.8-0.4,2.6
	C356.1,34.7,357.2,35.9,358.9,35.9z"/>
<radialGradient id="SVGID_00000167389299567110254530000014410518109212406409_" cx="-758.4641" cy="554.0228" r="1" gradientTransform="matrix(148.1065 -21.7912 -18.3231 -124.5353 122724.5938 52496.3086)" gradientUnits="userSpaceOnUse">
	<stop  offset="0" style="stop-color:#C92BEE"/>
	<stop  offset="0.1823" style="stop-color:#E2337F"/>
	<stop  offset="0.3542" style="stop-color:#E23422"/>
	<stop  offset="0.5729" style="stop-color:#F6D74B"/>
	<stop  offset="0.8021" style="stop-color:#73F5D3"/>
	<stop  offset="1" style="stop-color:#00CEF3"/>
</radialGradient>
<path style="fill:url(#SVGID_00000167389299567110254530000014410518109212406409_);" d="M372,35.9c3.9,0,7.6-4.4,11.1-11.6l-1.6,6
	c-0.2,0.9-0.4,1.8-0.4,2.5c0,2,1,3.1,2.7,3.1c2.4,0,4.7-2,7.6-6.4l-0.9-1.2c-2,2.8-3.7,4.6-4.9,4.6c-0.5,0-0.7-0.4-0.7-1
	c0-0.5,0.1-1,0.2-1.4l4.3-18.4H387l-1.3,2c-0.7-1.3-2.3-2.5-4.8-2.5c-7.6,0-13.4,10.7-13.4,18C367.5,33.4,369.1,35.9,372,35.9z
	 M371.5,28.6c0-5.6,4.2-14.8,9.8-14.8c1.4,0,2.7,0.5,3.4,2c-2.3,7.6-7.3,16.6-10.9,16.6C372.2,32.4,371.5,30.8,371.5,28.6z"/>
<path class="st6" d="M148.7,24.2c-1.1,0.3-2.2,0.6-3.3,0.7l-1.7,0.3c-1.7,0.2-2.9,0.8-2.9,2.4c0,1.6,0.9,2,2.8,2
	c0.6,0.1,1.3,0,1.9-0.2c0.6-0.2,1.2-0.5,1.6-0.9c0.5-0.4,0.9-0.9,1.1-1.5c0.3-0.6,0.4-1.2,0.5-1.8V24.2z M156.2,18.6v16.4h-6.8v-3.2
	c-0.9,1.2-2.1,2.2-3.5,2.8c-1.4,0.6-2.9,1-4.4,0.9c-2,0.1-4-0.6-5.6-1.9c-0.8-0.7-1.3-1.5-1.7-2.5c-0.4-0.9-0.6-2-0.5-3
	c-0.1-1,0.1-2,0.5-3c0.4-0.9,1.1-1.7,1.9-2.3c1.8-1.1,3.8-1.8,5.8-2.1l4.1-0.6c1.8-0.3,2.7-1,2.7-2.1c0-1.3-1.2-1.9-3.1-1.9
	c-0.8-0.1-1.5,0-2.2,0.3c-0.7,0.3-1.3,0.9-1.7,1.5h-7.3c1.1-5.5,5.6-8.1,11.8-8.1c6.5,0,10,3,10,8.7 M191.5,20.4
	c0-0.5-0.1-1-0.4-1.5c-0.2-0.5-0.5-0.9-0.9-1.2c-0.4-0.3-0.9-0.6-1.4-0.7c-0.5-0.1-1-0.2-1.5-0.1c-1.1-0.1-2.2,0.2-3.1,0.8
	c-0.9,0.7-1.5,1.7-1.7,2.8H191.5z M199,25.1h-16.5c0.3,2.5,2,3.7,5.1,3.7c0.7,0.1,1.5,0,2.2-0.2c0.7-0.3,1.3-0.7,1.8-1.3h7.4
	c-1.2,5.4-5.8,8.4-11.5,8.4c-6.7,0-12.3-4.3-12.3-12.7c0-8.4,5.6-13,12.5-13c6.5,0,11.5,4.2,11.5,12.1v3L199,25.1z M174,28.6h-2.5
	c-0.3,0-0.6,0-0.9-0.1c-0.3-0.1-0.6-0.3-0.8-0.5c-0.2-0.2-0.4-0.5-0.5-0.8c-0.1-0.3-0.1-0.6-0.1-0.9V17h4.8v-6.6h-4.8V3.4l-7.4,2.1
	v5h-4.2V17h4.2v10.2c0,6.5,3.1,7.9,8,7.9h4.3L174,28.6z M133.9,18.2h-2.3c-3.5,0-5.6,1.4-5.6,5.6v11.4h-7.4V10.5h7.4v3.2
	c0.8-2.2,2.9-3.2,5.6-3.2h2.3V18.2z M99.2,20.4c0.2-1.1,0.8-2.1,1.7-2.8c0.9-0.7,2.1-1,3.2-0.8c0.5-0.1,1,0,1.5,0.1
	c0.5,0.1,1,0.4,1.4,0.7s0.7,0.8,0.9,1.2c0.2,0.5,0.3,1,0.4,1.5H99.2z M115.7,22.1c0-7.9-5-12-11.5-12c-6.8,0-12.5,4.5-12.5,13
	s5.6,12.7,12.3,12.7c5.7,0,10.4-3,11.5-8.4h-7.4c-0.4,0.6-1,1.1-1.7,1.4c-0.7,0.3-1.4,0.4-2.2,0.3c-3.1,0-4.8-1.3-5.1-3.7h16.5
	L115.7,22.1L115.7,22.1z M89.3,35.1h-7.6V20.4c0-0.5,0-1-0.2-1.5c-0.2-0.5-0.5-0.9-0.8-1.3c-0.4-0.4-0.8-0.6-1.3-0.8
	c-0.5-0.2-1-0.2-1.5-0.1c-0.6,0-1.2,0.1-1.8,0.3c-0.6,0.2-1.1,0.6-1.5,1c-0.4,0.4-0.7,1-0.9,1.6c-0.2,0.6-0.3,1.2-0.2,1.8v13.8h-7.4
	V10.5h7.4v3c0.8-1.2,1.9-2.1,3.3-2.7c1.3-0.6,2.8-0.8,4.2-0.7c5.6,0,8.5,3.5,8.5,9.5L89.3,35.1L89.3,35.1z M46.8,20.4
	c0.2-1.1,0.8-2.1,1.7-2.8c0.9-0.7,2-1,3.1-0.8c0.5-0.1,1,0,1.5,0.1c0.5,0.1,1,0.4,1.4,0.7c0.4,0.3,0.7,0.8,0.9,1.2
	c0.2,0.5,0.3,1,0.4,1.5H46.8z M63.3,22.1c0-7.9-5-12-11.5-12c-6.8,0-12.5,4.5-12.5,13s5.6,12.7,12.3,12.7c5.7,0,10.4-3,11.5-8.4
	h-7.5c-0.4,0.6-1,1.1-1.7,1.3c-0.7,0.3-1.4,0.4-2.2,0.3c-3.1,0-4.7-1.3-5.1-3.7h16.5L63.3,22.1L63.3,22.1z M36.5,17.1v18h-6.8V32
	c-1.1,1.3-2.4,2.4-4,3.1c-1.6,0.7-3.2,1-4.9,0.9c-9.3,0-15.2-7.4-15.2-16.9C5.3,10.2,11.7,1.2,22.2,1.4C30,1.4,36,6.1,36.5,14h-8
	c-0.1-3.2-3-5.5-6.8-5.5c-1.2,0-2.4,0.2-3.5,0.7c-1.1,0.5-2.1,1.3-2.8,2.2c-1.6,2.2-2.4,4.9-2.3,7.7c0,6.4,3.4,9.7,8.3,9.7
	c4.2,0,6.9-1.9,7.4-5h-8.6v-6.8H36.5z M216.1,18.7h-8.2v-8.2h8.2V18.7z M216.1,26.9h-8.2v8.2h8.2V26.9z"/>
</svg>
